<svg width="483" height="136" viewBox="0 0 483 136" fill="none" xmlns="http://www.w3.org/2000/svg">
<path d="M8.31249 -5.59506e-06L128.312 -3.49691e-07C132.731 -1.56562e-07 136.312 3.58171 136.312 7.99999L136.312 90.6667L98.9792 90.6667C94.5609 90.6667 90.9792 87.085 90.9792 82.6667L90.9792 53.3333C90.9792 48.9151 87.3974 45.3333 82.9792 45.3333L53.6458 45.3333C49.2275 45.3333 45.6458 48.9151 45.6458 53.3333L45.6458 82.6667C45.6458 87.0849 42.0641 90.6667 37.6458 90.6667L0.312488 90.6667L0.312492 7.99999C0.312492 3.58172 3.89422 -5.78819e-06 8.31249 -5.59506e-06Z" fill="#FF911C"/>
<path d="M0.312485 128L0.312487 90.6667L37.6458 90.6667C42.0641 90.6667 45.6458 87.085 45.6458 82.6667L45.6458 53.3333C45.6458 48.9151 49.2275 45.3333 53.6458 45.3333L82.9792 45.3333C87.3974 45.3333 90.9792 48.9151 90.9792 53.3333L90.9792 82.6704C90.9792 87.0872 94.5586 90.6683 98.9755 90.6704L136.292 90.6875L136.309 127.996C136.311 132.416 132.729 136 128.309 136L8.31248 136C3.89421 136 0.312485 132.418 0.312485 128Z" fill="#007BFE"/>
<g clip-path="url(#clip0)">
<path d="M189.205 99.875H171.622V37.0049H188.157L188.739 44.1518C193.203 38.6125 199.199 35.8428 206.73 35.8428C210.689 35.8428 214.163 36.6175 217.151 38.167C220.14 39.6777 222.469 42.1956 224.138 45.7207C225.807 49.2458 226.641 54.0104 226.641 60.0147V99.875H209V59.8984C209 56.0248 208.166 53.4294 206.497 52.1123C204.828 50.7565 202.421 50.0786 199.277 50.0786C196.948 50.0786 194.949 50.5628 193.28 51.5312C191.611 52.4997 190.253 53.8361 189.205 55.5405V99.875ZM268.386 101.037C261.749 101.037 256.063 99.6619 251.327 96.9117C246.631 94.1613 243.021 90.4812 240.498 85.8717C238.014 81.2619 236.772 76.1681 236.772 70.5899V68.3236C236.772 62.0483 237.956 56.4702 240.323 51.5893C242.73 46.7085 246.146 42.8735 250.57 40.0845C254.995 37.2567 260.274 35.8428 266.407 35.8428C275.528 35.8428 282.476 38.6706 287.25 44.3262C292.024 49.943 294.412 57.4192 294.412 66.755V74.1925H254.646C255.267 78.0275 256.859 81.107 259.42 83.4311C262.021 85.7165 265.378 86.8594 269.493 86.8594C272.481 86.8594 275.257 86.3171 277.818 85.2325C280.419 84.109 282.651 82.3658 284.514 80.0028L293.014 89.7064C291.035 92.5344 287.968 95.1297 283.815 97.4927C279.662 99.8557 274.519 101.037 268.386 101.037ZM266.29 49.9624C262.836 49.9624 260.197 51.1245 258.372 53.4487C256.548 55.7343 255.345 58.7169 254.762 62.397H277.12V61.0024C277.081 57.7872 276.188 55.1532 274.441 53.1001C272.734 51.0083 270.017 49.9624 266.29 49.9624ZM327.947 55.1919L338.078 37.0049H356.767L339.184 67.7427L357.524 99.875H338.776L327.947 80.584L317.293 99.875H298.429L316.827 67.7427L299.244 37.0049H318.049L327.947 55.1919ZM401.482 37.0049H419.065V99.875H402.587L402.122 93.4252C400.181 95.8271 397.775 97.7058 394.902 99.0616C392.068 100.379 388.77 101.037 385.005 101.037C378.794 101.037 373.748 99.2165 369.867 95.5753C366.024 91.9339 364.103 85.9684 364.103 77.6787V37.0049H381.686V77.795C381.686 81.0101 382.482 83.3149 384.073 84.7095C385.663 86.1039 387.722 86.8014 390.246 86.8014C393.156 86.8014 395.505 86.2977 397.289 85.2905C399.114 84.2834 400.511 82.9275 401.482 81.2232V37.0049ZM465.234 82.3272C465.234 80.6227 464.399 79.2087 462.729 78.0855C461.101 76.9233 457.704 75.8 452.541 74.7154C448.272 73.8244 444.45 72.5849 441.073 70.9967C437.734 69.3696 435.075 67.2973 433.095 64.7793C431.155 62.2614 430.184 59.1819 430.184 55.5405C430.184 52.0155 431.193 48.7615 433.212 45.7788C435.23 42.7961 438.122 40.3944 441.886 38.5737C445.691 36.7531 450.233 35.8428 455.511 35.8428C463.779 35.8428 470.28 37.7603 475.015 41.5952C479.789 45.3914 482.176 50.2529 482.176 56.1797H464.593C464.593 53.8167 463.856 51.8993 462.38 50.4272C460.945 48.9165 458.635 48.1611 455.452 48.1611C452.852 48.1611 450.795 48.7809 449.281 50.0205C447.767 51.2601 447.011 52.8096 447.011 54.6689C447.011 56.4508 447.846 57.9035 449.513 59.0268C451.223 60.1116 454.191 61.0413 458.422 61.8158C462.885 62.7068 466.922 63.8883 470.533 65.3603C474.142 66.7936 477.015 68.8273 479.148 71.4614C481.284 74.0569 482.351 77.4656 482.351 81.688C482.351 85.4067 481.245 88.7188 479.033 91.6241C476.859 94.5294 473.755 96.8341 469.718 98.5386C465.719 100.204 461.003 101.037 455.569 101.037C449.63 101.037 444.624 99.9719 440.547 97.8414C436.472 95.7108 433.386 93.0185 431.291 89.7647C429.194 86.472 428.146 83.1213 428.146 79.7124H444.799C444.955 82.8501 446.098 85.1356 448.234 86.5689C450.408 87.9633 452.988 88.6607 455.978 88.6607C459.003 88.6607 461.294 88.0795 462.847 86.9174C464.439 85.7554 465.234 84.2252 465.234 82.3272Z" fill="url(#paint0_linear)"/>
</g>
<defs>
<linearGradient id="paint0_linear" x1="487.258" y1="61.625" x2="165.742" y2="66.9588" gradientUnits="userSpaceOnUse">
<stop offset="0.484375" stop-color="#007BFE"/>
<stop offset="0.505208" stop-color="#FF911C"/>
</linearGradient>
<clipPath id="clip0">
<rect width="313" height="68" fill="white" transform="translate(170 34)"/>
</clipPath>
</defs>
</svg>
